<svg width="52" height="52" viewBox="0 0 52 52" fill="none" xmlns="http://www.w3.org/2000/svg">
<circle cx="26" cy="26" r="26" fill="#FD492A"/>
<path d="M26.0002 51.2123C39.9245 51.2123 51.2123 39.9245 51.2123 26.0002C51.2123 12.0759 39.9245 0.788086 26.0002 0.788086C12.0759 0.788086 0.788086 12.0759 0.788086 26.0002C0.788086 39.9245 12.0759 51.2123 26.0002 51.2123Z" fill="#FEDECE"/>
<path d="M41.3639 12.2119H21.6669C21.4305 12.2119 21.2729 12.3695 21.2729 12.6059V17.3331C21.2729 17.5695 21.4305 17.7271 21.6669 17.7271H41.3639C41.6002 17.7271 41.7578 17.5695 41.7578 17.3331V12.6059C41.7578 12.3695 41.6002 12.2119 41.3639 12.2119Z" fill="#FD492A"/>
<path d="M41.3639 23.2422H21.6669C21.4305 23.2422 21.2729 23.3998 21.2729 23.6361V28.3634C21.2729 28.5998 21.4305 28.7573 21.6669 28.7573H41.3639C41.6002 28.7573 41.7578 28.5998 41.7578 28.3634V23.6361C41.7578 23.3998 41.6002 23.2422 41.3639 23.2422Z" fill="#FD492A"/>
<path d="M41.3639 34.2725H21.6669C21.4305 34.2725 21.2729 34.43 21.2729 34.6664V39.3937C21.2729 39.63 21.4305 39.7876 21.6669 39.7876H41.3639C41.6002 39.7876 41.7578 39.63 41.7578 39.3937V34.6664C41.7578 34.43 41.6002 34.2725 41.3639 34.2725Z" fill="#FD492A"/>
<path d="M15.3634 12.2119H10.6361C10.3998 12.2119 10.2422 12.3695 10.2422 12.6059V17.3331C10.2422 17.5695 10.3998 17.7271 10.6361 17.7271H15.3634C15.5998 17.7271 15.7573 17.5695 15.7573 17.3331V12.6059C15.7573 12.3695 15.5998 12.2119 15.3634 12.2119Z" fill="#FD492A"/>
<path d="M15.3634 23.2422H10.6361C10.3998 23.2422 10.2422 23.3998 10.2422 23.6361V28.3634C10.2422 28.5998 10.3998 28.7573 10.6361 28.7573H15.3634C15.5998 28.7573 15.7573 28.5998 15.7573 28.3634V23.6361C15.7573 23.3998 15.5998 23.2422 15.3634 23.2422Z" fill="#FD492A"/>
<path d="M15.3634 34.2725H10.6361C10.3998 34.2725 10.2422 34.43 10.2422 34.6664V39.3937C10.2422 39.63 10.3998 39.7876 10.6361 39.7876H15.3634C15.5998 39.7876 15.7573 39.63 15.7573 39.3937V34.6664C15.7573 34.43 15.5998 34.2725 15.3634 34.2725Z" fill="#FD492A"/>
</svg>
